<svg id="visual" viewBox="0 0 900 600" width="900" height="600" xmlns="http://www.w3.org/2000/svg" xmlns:xlink="http://www.w3.org/1999/xlink" version="1.1"><g stroke-width="1" stroke-linejoin="bevel"><path d="M472.9 267L544.7 268L468.9 231Z" fill="#007d95" stroke="#007d95"></path><path d="M544.7 268L552.7 230L468.9 231Z" fill="#134165" stroke="#134165"></path><path d="M552.7 230L503.9 140L468.9 231Z" fill="#007d95" stroke="#007d95"></path><path d="M472.9 267L564.7 348L544.7 268Z" fill="#009ca4" stroke="#009ca4"></path><path d="M544.7 268L646.5 248L552.7 230Z" fill="#28d26e" stroke="#28d26e"></path><path d="M663.5 283L646.5 248L544.7 268Z" fill="#008c9e" stroke="#008c9e"></path><path d="M552.7 230L551.7 113L503.9 140Z" fill="#00aba2" stroke="#00aba2"></path><path d="M503.9 140L383.1 188L468.9 231Z" fill="#00b998" stroke="#00b998"></path><path d="M468.9 231L371.1 300L472.9 267Z" fill="#00aba2" stroke="#00aba2"></path><path d="M472.9 267L459.9 379L564.7 348Z" fill="#134165" stroke="#134165"></path><path d="M660.5 152L551.7 113L552.7 230Z" fill="#00c686" stroke="#00c686"></path><path d="M503.9 140L399.1 109L383.1 188Z" fill="#28d26e" stroke="#28d26e"></path><path d="M404.1 349L459.9 379L472.9 267Z" fill="#00aba2" stroke="#00aba2"></path><path d="M371.1 300L404.1 349L472.9 267Z" fill="#28d26e" stroke="#28d26e"></path><path d="M383.1 188L371.1 300L468.9 231Z" fill="#007d95" stroke="#007d95"></path><path d="M564.7 348L663.5 283L544.7 268Z" fill="#006d8b" stroke="#006d8b"></path><path d="M479.9 67L399.1 109L503.9 140Z" fill="#00b998" stroke="#00b998"></path><path d="M752.4 247L660.5 152L646.5 248Z" fill="#094f73" stroke="#094f73"></path><path d="M646.5 248L660.5 152L552.7 230Z" fill="#006d8b" stroke="#006d8b"></path><path d="M539.7 48L479.9 67L551.7 113Z" fill="#006d8b" stroke="#006d8b"></path><path d="M551.7 113L479.9 67L503.9 140Z" fill="#008c9e" stroke="#008c9e"></path><path d="M399.1 109L371.1 124L383.1 188Z" fill="#006d8b" stroke="#006d8b"></path><path d="M383.1 188L294.3 201L371.1 300Z" fill="#006d8b" stroke="#006d8b"></path><path d="M645.5 85L539.7 48L551.7 113Z" fill="#00c686" stroke="#00c686"></path><path d="M389.1 0L356.3 110L399.1 109Z" fill="#008c9e" stroke="#008c9e"></path><path d="M399.1 109L356.3 110L371.1 124Z" fill="#28d26e" stroke="#28d26e"></path><path d="M371.1 124L316.3 165L383.1 188Z" fill="#28d26e" stroke="#28d26e"></path><path d="M356.3 110L316.3 165L371.1 124Z" fill="#007d95" stroke="#007d95"></path><path d="M660.5 152L645.5 85L551.7 113Z" fill="#005e80" stroke="#005e80"></path><path d="M379.1 459L529.9 461L459.9 379Z" fill="#007d95" stroke="#007d95"></path><path d="M459.9 379L529.9 461L564.7 348Z" fill="#094f73" stroke="#094f73"></path><path d="M564.7 348L685.5 413L663.5 283Z" fill="#005e80" stroke="#005e80"></path><path d="M316.3 165L294.3 201L383.1 188Z" fill="#005e80" stroke="#005e80"></path><path d="M371.1 300L301.3 320L404.1 349Z" fill="#007d95" stroke="#007d95"></path><path d="M284.5 213L301.3 320L371.1 300Z" fill="#28d26e" stroke="#28d26e"></path><path d="M404.1 349L379.1 459L459.9 379Z" fill="#094f73" stroke="#094f73"></path><path d="M280.5 116L284.5 213L294.3 201Z" fill="#006d8b" stroke="#006d8b"></path><path d="M294.3 201L284.5 213L371.1 300Z" fill="#00b998" stroke="#00b998"></path><path d="M529.9 461L595.7 460L564.7 348Z" fill="#094f73" stroke="#094f73"></path><path d="M246.5 328L292.3 340L301.3 320Z" fill="#007d95" stroke="#007d95"></path><path d="M301.3 320L292.3 340L404.1 349Z" fill="#007d95" stroke="#007d95"></path><path d="M685.5 413L740.4 316L663.5 283Z" fill="#00b998" stroke="#00b998"></path><path d="M663.5 283L752.4 247L646.5 248Z" fill="#00b998" stroke="#00b998"></path><path d="M660.5 152L737.4 116L645.5 85Z" fill="#28d26e" stroke="#28d26e"></path><path d="M740.4 316L752.4 247L663.5 283Z" fill="#00c686" stroke="#00c686"></path><path d="M595.7 460L685.5 413L564.7 348Z" fill="#094f73" stroke="#094f73"></path><path d="M539.7 48L514.9 0L479.9 67Z" fill="#00b998" stroke="#00b998"></path><path d="M479.9 67L389.1 0L399.1 109Z" fill="#008c9e" stroke="#008c9e"></path><path d="M555.7 0L514.9 0L539.7 48Z" fill="#00c686" stroke="#00c686"></path><path d="M618.5 0L555.7 0L539.7 48Z" fill="#005e80" stroke="#005e80"></path><path d="M292.3 340L379.1 459L404.1 349Z" fill="#00aba2" stroke="#00aba2"></path><path d="M784.2 182L737.4 116L660.5 152Z" fill="#00b998" stroke="#00b998"></path><path d="M645.5 85L618.5 0L539.7 48Z" fill="#005e80" stroke="#005e80"></path><path d="M316.3 165L280.5 116L294.3 201Z" fill="#00aba2" stroke="#00aba2"></path><path d="M356.3 110L280.5 116L316.3 165Z" fill="#00aba2" stroke="#00aba2"></path><path d="M324.3 0L280.5 116L356.3 110Z" fill="#008c9e" stroke="#008c9e"></path><path d="M595.7 460L689.5 436L685.5 413Z" fill="#006d8b" stroke="#006d8b"></path><path d="M685.5 413L744.4 406L740.4 316Z" fill="#134165" stroke="#134165"></path><path d="M731.4 53L618.5 0L645.5 85Z" fill="#009ca4" stroke="#009ca4"></path><path d="M514.9 0L389.1 0L479.9 67Z" fill="#009ca4" stroke="#009ca4"></path><path d="M284.5 213L246.5 328L301.3 320Z" fill="#006d8b" stroke="#006d8b"></path><path d="M292.3 340L313.3 462L379.1 459Z" fill="#006d8b" stroke="#006d8b"></path><path d="M189.6 234L246.5 328L284.5 213Z" fill="#00b998" stroke="#00b998"></path><path d="M379.1 459L494.9 521L529.9 461Z" fill="#094f73" stroke="#094f73"></path><path d="M529.9 461L580.7 540L595.7 460Z" fill="#00c686" stroke="#00c686"></path><path d="M595.7 460L660.5 489L689.5 436Z" fill="#094f73" stroke="#094f73"></path><path d="M752.4 247L784.2 182L660.5 152Z" fill="#00c686" stroke="#00c686"></path><path d="M856.2 245L784.2 182L752.4 247Z" fill="#007d95" stroke="#007d95"></path><path d="M689.5 436L744.4 406L685.5 413Z" fill="#006d8b" stroke="#006d8b"></path><path d="M740.4 316L782.2 342L752.4 247Z" fill="#094f73" stroke="#094f73"></path><path d="M580.7 540L660.5 489L595.7 460Z" fill="#00c686" stroke="#00c686"></path><path d="M689.5 436L696.4 466L744.4 406Z" fill="#007d95" stroke="#007d95"></path><path d="M660.5 489L696.4 466L689.5 436Z" fill="#007d95" stroke="#007d95"></path><path d="M744.4 406L782.2 342L740.4 316Z" fill="#007d95" stroke="#007d95"></path><path d="M217.5 433L313.3 462L292.3 340Z" fill="#006d8b" stroke="#006d8b"></path><path d="M379.1 459L379.1 544L494.9 521Z" fill="#094f73" stroke="#094f73"></path><path d="M828.2 70L731.4 53L737.4 116Z" fill="#008c9e" stroke="#008c9e"></path><path d="M737.4 116L731.4 53L645.5 85Z" fill="#094f73" stroke="#094f73"></path><path d="M494.9 521L580.7 540L529.9 461Z" fill="#009ca4" stroke="#009ca4"></path><path d="M389.1 0L324.3 0L356.3 110Z" fill="#00c686" stroke="#00c686"></path><path d="M157.6 143L284.5 213L280.5 116Z" fill="#00aba2" stroke="#00aba2"></path><path d="M157.6 143L189.6 234L284.5 213Z" fill="#007d95" stroke="#007d95"></path><path d="M246.5 328L208.5 397L292.3 340Z" fill="#00aba2" stroke="#00aba2"></path><path d="M342.3 543L379.1 544L379.1 459Z" fill="#00c686" stroke="#00c686"></path><path d="M494.9 521L574.7 600L580.7 540Z" fill="#00b998" stroke="#00b998"></path><path d="M144.6 393L208.5 397L246.5 328Z" fill="#008c9e" stroke="#008c9e"></path><path d="M313.3 462L342.3 543L379.1 459Z" fill="#094f73" stroke="#094f73"></path><path d="M828.2 70L744.4 0L731.4 53Z" fill="#008c9e" stroke="#008c9e"></path><path d="M731.4 53L744.4 0L618.5 0Z" fill="#00aba2" stroke="#00aba2"></path><path d="M272.5 523L342.3 543L313.3 462Z" fill="#008c9e" stroke="#008c9e"></path><path d="M696.4 466L790.2 440L744.4 406Z" fill="#005e80" stroke="#005e80"></path><path d="M744.4 406L790.2 440L782.2 342Z" fill="#00c686" stroke="#00c686"></path><path d="M853.2 321L856.2 245L752.4 247Z" fill="#008c9e" stroke="#008c9e"></path><path d="M707.4 536L790.2 440L696.4 466Z" fill="#007d95" stroke="#007d95"></path><path d="M707.4 536L696.4 466L660.5 489Z" fill="#28d26e" stroke="#28d26e"></path><path d="M853.2 321L752.4 247L782.2 342Z" fill="#00b998" stroke="#00b998"></path><path d="M784.2 182L828.2 70L737.4 116Z" fill="#28d26e" stroke="#28d26e"></path><path d="M208.5 397L217.5 433L292.3 340Z" fill="#00c686" stroke="#00c686"></path><path d="M685.5 600L707.4 536L660.5 489Z" fill="#094f73" stroke="#094f73"></path><path d="M900 382L853.2 321L782.2 342Z" fill="#28d26e" stroke="#28d26e"></path><path d="M324.3 0L220.5 36L280.5 116Z" fill="#009ca4" stroke="#009ca4"></path><path d="M404.1 600L494.9 521L379.1 544Z" fill="#28d26e" stroke="#28d26e"></path><path d="M404.1 600L480.9 600L494.9 521Z" fill="#28d26e" stroke="#28d26e"></path><path d="M580.7 540L685.5 600L660.5 489Z" fill="#00b998" stroke="#00b998"></path><path d="M480.9 600L574.7 600L494.9 521Z" fill="#007d95" stroke="#007d95"></path><path d="M900 180L828.2 70L784.2 182Z" fill="#094f73" stroke="#094f73"></path><path d="M217.5 433L272.5 523L313.3 462Z" fill="#007d95" stroke="#007d95"></path><path d="M323.3 600L404.1 600L379.1 544Z" fill="#005e80" stroke="#005e80"></path><path d="M176.6 61L157.6 143L280.5 116Z" fill="#009ca4" stroke="#009ca4"></path><path d="M189.6 234L131.6 262L246.5 328Z" fill="#008c9e" stroke="#008c9e"></path><path d="M324.3 0L231.5 0L220.5 36Z" fill="#006d8b" stroke="#006d8b"></path><path d="M220.5 36L176.6 61L280.5 116Z" fill="#005e80" stroke="#005e80"></path><path d="M323.3 600L379.1 544L342.3 543Z" fill="#009ca4" stroke="#009ca4"></path><path d="M157.6 143L131.6 262L189.6 234Z" fill="#00aba2" stroke="#00aba2"></path><path d="M208.5 397L144.6 393L217.5 433Z" fill="#007d95" stroke="#007d95"></path><path d="M127.6 0L176.6 61L220.5 36Z" fill="#005e80" stroke="#005e80"></path><path d="M853.2 321L900 274L856.2 245Z" fill="#007d95" stroke="#007d95"></path><path d="M856.2 245L900 189L784.2 182Z" fill="#28d26e" stroke="#28d26e"></path><path d="M900 382L900 274L853.2 321Z" fill="#28d26e" stroke="#28d26e"></path><path d="M100.8 333L144.6 393L246.5 328Z" fill="#134165" stroke="#134165"></path><path d="M217.5 433L176.6 490L272.5 523Z" fill="#28d26e" stroke="#28d26e"></path><path d="M900 274L900 189L856.2 245Z" fill="#007d95" stroke="#007d95"></path><path d="M900 189L900 180L784.2 182Z" fill="#00b998" stroke="#00b998"></path><path d="M574.7 600L685.5 600L580.7 540Z" fill="#134165" stroke="#134165"></path><path d="M707.4 536L852.2 552L790.2 440Z" fill="#00aba2" stroke="#00aba2"></path><path d="M790.2 440L900 382L782.2 342Z" fill="#00c686" stroke="#00c686"></path><path d="M258.5 600L323.3 600L272.5 523Z" fill="#00c686" stroke="#00c686"></path><path d="M272.5 523L323.3 600L342.3 543Z" fill="#00aba2" stroke="#00aba2"></path><path d="M167.6 480L176.6 490L217.5 433Z" fill="#005e80" stroke="#005e80"></path><path d="M900 413L900 382L790.2 440Z" fill="#134165" stroke="#134165"></path><path d="M144.6 393L167.6 480L217.5 433Z" fill="#006d8b" stroke="#006d8b"></path><path d="M685.5 600L723.4 600L707.4 536Z" fill="#28d26e" stroke="#28d26e"></path><path d="M131.6 262L100.8 333L246.5 328Z" fill="#005e80" stroke="#005e80"></path><path d="M144.6 393L79.8 489L167.6 480Z" fill="#009ca4" stroke="#009ca4"></path><path d="M79.8 239L100.8 333L131.6 262Z" fill="#00aba2" stroke="#00aba2"></path><path d="M97.8 149L131.6 262L157.6 143Z" fill="#008c9e" stroke="#008c9e"></path><path d="M900 180L900 95L828.2 70Z" fill="#00b998" stroke="#00b998"></path><path d="M828.2 70L853.2 0L744.4 0Z" fill="#00b998" stroke="#00b998"></path><path d="M900 95L853.2 0L828.2 70Z" fill="#00c686" stroke="#00c686"></path><path d="M176.6 61L97.8 149L157.6 143Z" fill="#134165" stroke="#134165"></path><path d="M900 506L900 413L790.2 440Z" fill="#009ca4" stroke="#009ca4"></path><path d="M97.8 149L79.8 239L131.6 262Z" fill="#28d26e" stroke="#28d26e"></path><path d="M156.6 600L258.5 600L176.6 490Z" fill="#005e80" stroke="#005e80"></path><path d="M176.6 490L258.5 600L272.5 523Z" fill="#008c9e" stroke="#008c9e"></path><path d="M0 345L94.8 378L100.8 333Z" fill="#00b998" stroke="#00b998"></path><path d="M100.8 333L94.8 378L144.6 393Z" fill="#007d95" stroke="#007d95"></path><path d="M231.5 0L127.6 0L220.5 36Z" fill="#28d26e" stroke="#28d26e"></path><path d="M176.6 61L55.8 105L97.8 149Z" fill="#006d8b" stroke="#006d8b"></path><path d="M832.2 600L852.2 552L707.4 536Z" fill="#00aba2" stroke="#00aba2"></path><path d="M900 95L900 0L853.2 0Z" fill="#094f73" stroke="#094f73"></path><path d="M127.6 0L111.8 0L176.6 61Z" fill="#008c9e" stroke="#008c9e"></path><path d="M97.8 149L0 230L79.8 239Z" fill="#005e80" stroke="#005e80"></path><path d="M852.2 552L900 506L790.2 440Z" fill="#134165" stroke="#134165"></path><path d="M111.8 0L55.8 105L176.6 61Z" fill="#007d95" stroke="#007d95"></path><path d="M0 416L79.8 489L94.8 378Z" fill="#094f73" stroke="#094f73"></path><path d="M723.4 600L832.2 600L707.4 536Z" fill="#008c9e" stroke="#008c9e"></path><path d="M852.2 552L900 600L900 506Z" fill="#00aba2" stroke="#00aba2"></path><path d="M0 294L100.8 333L79.8 239Z" fill="#28d26e" stroke="#28d26e"></path><path d="M94.8 378L79.8 489L144.6 393Z" fill="#009ca4" stroke="#009ca4"></path><path d="M167.6 480L87.8 563L176.6 490Z" fill="#094f73" stroke="#094f73"></path><path d="M87.8 563L156.6 600L176.6 490Z" fill="#00aba2" stroke="#00aba2"></path><path d="M0 131L0 230L97.8 149Z" fill="#009ca4" stroke="#009ca4"></path><path d="M0 230L0 294L79.8 239Z" fill="#009ca4" stroke="#009ca4"></path><path d="M0 294L0 345L100.8 333Z" fill="#00b998" stroke="#00b998"></path><path d="M55.8 105L0 131L97.8 149Z" fill="#009ca4" stroke="#009ca4"></path><path d="M0 45L0 131L55.8 105Z" fill="#094f73" stroke="#094f73"></path><path d="M79.8 489L87.8 563L167.6 480Z" fill="#008c9e" stroke="#008c9e"></path><path d="M74.8 600L87.8 563L0 600Z" fill="#094f73" stroke="#094f73"></path><path d="M832.2 600L900 600L852.2 552Z" fill="#008c9e" stroke="#008c9e"></path><path d="M0 345L0 416L94.8 378Z" fill="#006d8b" stroke="#006d8b"></path><path d="M111.8 0L0 45L55.8 105Z" fill="#00b998" stroke="#00b998"></path><path d="M0 497L87.8 563L79.8 489Z" fill="#007d95" stroke="#007d95"></path><path d="M87.8 563L74.8 600L156.6 600Z" fill="#005e80" stroke="#005e80"></path><path d="M111.8 0L0 0L0 45Z" fill="#005e80" stroke="#005e80"></path><path d="M0 416L0 497L79.8 489Z" fill="#00b998" stroke="#00b998"></path><path d="M0 497L0 600L87.8 563Z" fill="#009ca4" stroke="#009ca4"></path></g></svg>