<?xml version="1.0" encoding="UTF-8" standalone="no"?>
<!-- Generator: Adobe Illustrator 18.0.0, SVG Export Plug-In . SVG Version: 6.00 Build 0)  -->

<svg
   version="1.1"
   id="Layer_1"
   x="0px"
   y="0px"
   viewBox="0 0 365 560"
   enable-background="new 0 0 365 560"
   xml:space="preserve"
   sodipodi:docname="marker.svg"
   inkscape:version="1.1.1 (3bf5ae0d25, 2021-09-20)"
   xmlns:inkscape="http://www.inkscape.org/namespaces/inkscape"
   xmlns:sodipodi="http://sodipodi.sourceforge.net/DTD/sodipodi-0.dtd"
   xmlns="http://www.w3.org/2000/svg"
   xmlns:svg="http://www.w3.org/2000/svg"><defs
   id="defs9" /><sodipodi:namedview
   id="namedview7"
   pagecolor="#ffffff"
   bordercolor="#666666"
   borderopacity="1.0"
   inkscape:pageshadow="2"
   inkscape:pageopacity="0.0"
   inkscape:pagecheckerboard="0"
   showgrid="false"
   inkscape:zoom="1.1142857"
   inkscape:cx="182.62821"
   inkscape:cy="280"
   inkscape:window-width="1920"
   inkscape:window-height="1029"
   inkscape:window-x="0"
   inkscape:window-y="0"
   inkscape:window-maximized="1"
   inkscape:current-layer="g4" />
<g
   id="g4">
	<path
   fill="#00AEEF"
   d="M182.9,551.7c0,0.1,0.2,0.3,0.2,0.3S358.3,283,358.3,194.6c0-130.1-88.8-186.7-175.4-186.9   C96.3,7.9,7.5,64.5,7.5,194.6c0,88.4,175.3,357.4,175.3,357.4S182.9,551.7,182.9,551.7z M122.2,187.2c0-33.6,27.2-60.8,60.8-60.8   c33.6,0,60.8,27.2,60.8,60.8S216.5,248,182.9,248C149.4,248,122.2,220.8,122.2,187.2z"
   id="path2"
   style="fill:#00b74a;fill-opacity:1" />
</g>
</svg>
